Coordinates
version=1
nRows=16
nColumns=32
inDegrees=no

Units are S.I. units (second, meters, Newtons, ...)
If the header above contains a line with 'inDegrees', this indicates whether rotational values are in degrees (yes) or radians (no).

endheader
time	pelvis_tilt	pelvis_list	pelvis_rotation	pelvis_tx	pelvis_ty	pelvis_tz	hip_flexion_r	hip_adduction_r	hip_rotation_r	knee_angle_r	ankle_angle_r	subtalar_angle_r	mtp_angle_r	hip_flexion_l	hip_adduction_l	hip_rotation_l	knee_angle_l	ankle_angle_l	subtalar_angle_l	mtp_angle_l	lumbar_extension	lumbar_bending	lumbar_rotation	arm_flex_r	arm_add_r	arm_rot_r	elbow_flex_r	arm_flex_l	arm_add_l	arm_rot_l	elbow_flex_l
2.925	-0.0701184	0.0246629	0.141447	0.808817	1.0111	-0.311848	-0.00596129	-0.0806009	-0.169433	1.96921	-0.853152	-0.840511	0.0449212	0.530686	0.0303355	-0.517589	0.329781	-0.441962	0.121203	0.129852	-0.226067	-0.00703388	-0.121085	-0.320265	-0.42067	0.531831	1.03541	-0.649514	-0.239102	0.275571	0.508057
2.93	-0.0607419	0.0335484	0.14822	0.807761	1.00854	-0.311913	0.0288032	-0.0960774	-0.159346	2.03647	-0.826883	-0.840821	0.044886	0.498084	0.0372453	-0.486519	0.35916	-0.389898	0.113581	0.129815	-0.241006	-0.0163571	-0.146206	-0.333273	-0.419493	0.535735	0.968826	-0.601771	-0.240264	0.291057	0.498509
2.935	-0.0531345	0.0423308	0.155651	0.806731	1.00556	-0.312098	0.0675144	-0.112601	-0.146834	2.10008	-0.798961	-0.837561	0.0448508	0.467795	0.0451112	-0.44909	0.394488	-0.319852	0.0997071	0.129778	-0.253813	-0.0254126	-0.17298	-0.349075	-0.419979	0.539778	0.910205	-0.556511	-0.24078	0.303075	0.496134
2.94	-0.0476612	0.0506459	0.164126	0.805699	1.00223	-0.312478	0.110749	-0.129826	-0.131863	2.15952	-0.769497	-0.830204	0.0448155	0.440125	0.0540964	-0.406687	0.434782	-0.235547	0.078339	0.129741	-0.264088	-0.0335835	-0.201775	-0.368057	-0.422413	0.543603	0.86078	-0.514275	-0.240162	0.310752	0.501597
2.945	-0.0445555	0.0581847	0.173947	0.804634	0.99864	-0.313119	0.158881	-0.147427	-0.114531	2.21415	-0.73869	-0.818325	0.0447802	0.415073	0.064242	-0.360646	0.478392	-0.142925	0.0489839	0.129704	-0.27155	-0.0403252	-0.232842	-0.390432	-0.426954	0.546663	0.821372	-0.47546	-0.237941	0.313371	0.515126
2.95	-0.0438826	0.0646715	0.185277	0.803519	0.994943	-0.314064	0.212003	-0.165034	-0.095145	2.2632	-0.706839	-0.801689	0.0447449	0.392332	0.0753169	-0.312203	0.523275	-0.0489463	0.0122286	0.129667	-0.276047	-0.0451758	-0.266223	-0.416245	-0.433595	0.548249	0.792317	-0.440238	-0.233739	0.310526	0.536472
2.955	-0.0455256	0.0697683	0.198078	0.802359	0.991295	-0.315318	0.269904	-0.182078	-0.0742944	2.30581	-0.674363	-0.78041	0.0447096	0.371319	0.0866423	-0.262526	0.567318	0.0398755	-0.0301494	0.129629	-0.277525	-0.0477037	-0.301634	-0.445431	-0.442142	0.547552	0.773468	-0.408529	-0.227326	0.302236	0.56495
2.96	-0.0492064	0.0730014	0.212056	0.80119	0.987846	-0.316834	0.332095	-0.197699	-0.0528692	2.34113	-0.641802	-0.755137	0.0446742	0.351254	0.0970259	-0.212762	0.608582	0.118539	-0.075382	0.129592	-0.275975	-0.0474711	-0.338376	-0.477864	-0.452235	0.543758	0.764259	-0.380016	-0.218664	0.289003	0.599543
2.965	-0.0545344	0.0737781	0.226631	0.800078	0.984716	-0.318515	0.397884	-0.210755	-0.0319941	2.36839	-0.609808	-0.727134	0.0446389	0.331278	0.104863	-0.16409	0.645489	0.183961	-0.120165	0.129555	-0.271408	-0.0440653	-0.37534	-0.513412	-0.463371	0.536154	0.76381	-0.354215	-0.207923	0.271763	0.639067
2.97	-0.0610658	0.0714839	0.240947	0.799114	0.981983	-0.320216	0.466459	-0.219958	-0.0128848	2.38701	-0.579111	-0.698242	0.0446035	0.310571	0.108383	-0.117796	0.676909	0.234831	-0.161215	0.129518	-0.26386	-0.0371803	-0.411075	-0.551945	-0.474953	0.524231	0.771047	-0.330566	-0.195475	0.251773	0.682336
2.975	-0.0683502	0.0656213	0.253947	0.798399	0.979687	-0.321767	0.536946	-0.224068	0.00333054	2.39671	-0.550477	-0.670722	0.0445681	0.288409	0.105957	-0.0753528	0.702142	0.271139	-0.195733	0.129481	-0.253427	-0.0267078	-0.443951	-0.593331	-0.486343	0.507771	0.784813	-0.30854	-0.181856	0.230432	0.728317
2.98	-0.0759605	0.055955	0.264481	0.798033	0.977831	-0.322993	0.608432	-0.222103	0.015787	2.39747	-0.524647	-0.647014	0.0445326	0.264153	0.0964114	-0.0384423	0.720814	0.293584	-0.221749	0.129443	-0.240337	-0.0128068	-0.472358	-0.637407	-0.496922	0.486885	0.803979	-0.287716	-0.167704	0.209116	0.776228
2.985	-0.0835198	0.042611	0.271459	0.798096	0.976403	-0.32374	0.67997	-0.213531	0.0240189	2.38952	-0.502319	-0.629455	0.0444972	0.237256	0.0792818	-0.00887445	0.732771	0.302997	-0.238352	0.129406	-0.224989	0.00406425	-0.494926	-0.683955	-0.506145	0.462007	0.827512	-0.267819	-0.153689	0.18903	0.825569
2.99	-0.0907388	0.0261113	0.274007	0.798639	0.975381	-0.323902	0.750623	-0.19839	0.0280291	2.37334	-0.484119	-0.619994	0.0444617	0.207291	0.0549476	0.0116216	0.738015	0.299915	-0.245773	0.129369	-0.207938	0.0231691	-0.510713	-0.732667	-0.513593	0.433863	0.854511	-0.248737	-0.140453	0.171116	0.876098
2.995	-0.0974493	0.00732249	0.271593	0.79967	0.974739	-0.323434	0.819503	-0.17733	0.0282704	2.34952	-0.470546	-0.619946	0.0444262	0.174011	0.0246225	0.0216716	0.736656	0.284387	-0.245336	0.129331	-0.189835	0.0435694	-0.519332	-0.783134	-0.519011	0.403398	0.884216	-0.230498	-0.128562	0.15603	0.927747
3	-0.103614	-0.0126596	0.26411	0.80116	0.974454	-0.322357	0.885817	-0.151537	0.0255436	2.31873	-0.461894	-0.629831	0.0443907	0.137386	-0.00979869	0.0205154	0.728882	0.255994	-0.239246	0.129294	-0.171338	0.0642349	-0.520976	-0.834834	-0.522323	0.371692	0.915977	-0.213229	-0.118485	0.144158	0.980522
